<svg width="33" height="28" viewBox="0 0 33 28" fill="none" xmlns="http://www.w3.org/2000/svg">
<path fill-rule="evenodd" clip-rule="evenodd" d="M6.69213 1.87264C5.21065 2.37881 2.33406 3.90967 2.38344 5.82331C2.40813 6.95912 2.44522 8.20591 2.61806 9.78615C2.87732 12.2306 2.96379 15.1812 3.16132 17.7491C3.51934 22.4034 2.66749 23.8603 5.38354 24.6134C19.3342 28.4653 27.7661 25.4283 29.8773 25.8233C30.6427 25.9715 31.0995 25.1936 30.5192 24.7244C29.7415 24.1071 28.5933 21.7985 23.1489 16.3294C24.4081 13.7491 29.7292 5.63813 29.7416 5.62578C30.2107 4.93443 29.3711 4.74924 27.0624 5.08257C25.9513 5.24307 14.4945 5.84801 14.4698 5.84801C8.95133 6.11961 9.22293 6.29245 9.22293 5.8727C9.22293 5.42825 8.84022 2.2553 8.82787 1.94666C8.79084 1.32938 8.30935 1.31708 6.69213 1.87264ZM8.0996 2.52693C8.0996 3.30471 6.49465 5.65035 6.49465 5.98369C6.49465 6.18122 5.88966 6.14418 5.64275 6.14418C7.56861 2.74913 8.0996 1.31706 8.0996 2.52693ZM5.79092 4.29234C5.02549 5.53924 4.67976 6.02072 4.50692 6.02072C4.26001 6.02072 4.18593 5.71208 4.38346 5.58862C4.48223 5.5269 5.23539 4.2553 5.69218 3.36641C5.79095 3.18123 6.6304 2.57629 6.81559 2.56395C6.82793 2.56395 6.37117 3.34172 5.79092 4.29234ZM8.01318 6.04541C8.01318 6.16887 7.48232 6.29233 7.3959 6.20591C7.37121 6.16887 7.53158 5.81085 7.7538 5.40344C8.09948 4.77381 8.44528 4.08246 8.5317 4.29234C8.67985 4.72444 8.01318 5.76146 8.01318 6.04541ZM27.6058 6.57628C27.6058 6.92196 21.5564 15.7244 21.5564 16.4775C21.5564 16.7121 29.0873 24.6874 29.0626 24.7244C28.9638 24.8232 22.6427 25.638 15.9513 25.2183C8.06244 24.7368 5.14892 22.8726 4.71682 22.7491C4.223 6.30467 2.12418 6.20603 4.29702 6.92208C6.58097 7.67517 9.28466 7.23072 13.6056 6.89739C21.8279 6.24307 27.6058 6.56393 27.6058 6.57628Z" fill="#82B0FF" stroke="#82B0FF"/>
</svg>
