<svg width="44" height="81" viewBox="0 0 44 81" fill="none" xmlns="http://www.w3.org/2000/svg">
<path d="M38.522 80.2197C15.3605 76.5578 7.51511 47.7036 14.6052 28.1823C17.1282 21.2355 21.8629 15.3169 27.6852 10.8178" stroke="#B3BDD2" stroke-width="1.17564" stroke-miterlimit="10" stroke-linecap="round" stroke-linejoin="round"/>
<path d="M29.5459 77.4404C29.5459 77.4404 35.1169 68.464 27.0028 55.7023C26.6972 56.3849 22.7094 67.5669 29.5459 77.4404Z" fill="#B3BDD2"/>
<path d="M24.2393 73.7972C24.2393 73.7972 14.0282 76.5084 4.1875 65.0256C4.92954 64.9323 16.7886 64.3786 24.2393 73.7972Z" fill="#B3BDD2"/>
<path d="M15.2643 60.8105C15.2643 60.8105 4.78483 59.4716 0 45.1258C0.722507 45.3193 11.9149 49.2778 15.2643 60.8105Z" fill="#B3BDD2"/>
<path d="M11.8908 46.4033C11.8908 46.4033 2.39766 41.7675 2.47706 26.6451C3.09887 27.0603 12.4254 34.4059 11.8908 46.4033Z" fill="#B3BDD2"/>
<path d="M13.4061 31.1592C13.4061 31.1592 5.5025 24.1489 9.63187 9.60079C10.1197 10.1677 17.1365 19.744 13.4061 31.1592Z" fill="#B3BDD2"/>
<path d="M18.3039 20.3086C18.3039 20.3086 13.8353 11.2235 22.4145 -0.000635147C22.6443 0.677763 25.4619 11.6837 18.3039 20.3086Z" fill="#B3BDD2"/>
<path d="M18.899 67.6104C18.899 67.6104 27.5005 59.8064 23.2186 44.1309C22.6815 44.7524 15.034 54.8185 18.899 67.6104Z" fill="#B3BDD2"/>
<path d="M12.6562 50.1221C12.6562 50.1221 21.6749 45.0076 22.0142 29.7614C21.3683 30.2025 12.6788 37.0101 12.6562 50.1221Z" fill="#B3BDD2"/>
<path d="M21.2711 19.0162C23.8557 17.139 26.8304 15.8447 29.8985 14.9558C29.892 15.5921 29.8045 16.2275 29.6385 16.8418C29.4327 17.603 29.1085 18.327 28.7508 19.0297C25.8919 24.6448 20.0834 29.9653 13.7422 31.2119C13.7626 30.4979 14.2455 29.5403 14.4444 28.8395C15.5936 24.7894 17.8399 21.5085 21.2711 19.0162Z" fill="#B3BDD2"/>
<path d="M28.3275 9.17095C32.5402 5.7656 37.94 3.85907 43.357 3.86487C43.4868 5.56773 41.2429 7.13978 40.0672 8.02902C37.3758 10.0647 34.544 11.451 31.2523 12.3394C29.2263 12.8861 26.9483 13.3256 24.8449 13.3222C24.7823 13.3221 24.7107 13.3173 24.672 13.2681C24.6166 13.1972 24.6695 13.0955 24.7222 13.0226C25.1383 12.4452 25.6761 11.9689 26.1138 11.4078C26.7672 10.5698 27.5007 9.83927 28.3275 9.17095Z" fill="#B3BDD2"/>
</svg>
